<?xml version="1.0" encoding="utf-8"?>
<!-- Generator: Adobe Illustrator 16.0.3, SVG Export Plug-In . SVG Version: 6.00 Build 0)  -->
<!DOCTYPE svg PUBLIC "-//W3C//DTD SVG 1.1//EN" "http://www.w3.org/Graphics/SVG/1.1/DTD/svg11.dtd">
<svg version="1.1" xmlns="http://www.w3.org/2000/svg" xmlns:xlink="http://www.w3.org/1999/xlink" x="0px" y="0px" width="256px"
	 height="256px" viewBox="0 0 256 256" enable-background="new 0 0 256 256" xml:space="preserve">
<g id="レイヤー_2">
	<path d="M222.25,136.25H220h-5h-16.5v-32.583v-13.5V78.25c0-6.6-5.4-12-12-12h-9.166H110.5l26.125,26H158.5
		c6.6,0,12,5.344,12,11.875v32.125H154l-0.002,0.081c-0.801-0.051-1.584-0.081-2.331-0.081h-2.917c-6.6,0-8.231,3.867-3.625,8.594
		l31,31.812c0,0,0.001,0,0.001,0.001l8.374,8.593l8.546-8.417c0.001-0.001,0.003-0.002,0.004-0.004l9.805-9.657l17.96-17.689v-0.001
		l4.886-4.812C230.402,140.039,228.85,136.25,222.25,136.25z"/>
	<path d="M33.75,119.75H36h5h16.5v32.583v13.5v11.917c0,6.6,5.4,12,12,12h9.166H145.5l-26.125-26H97.5c-6.6,0-12-5.344-12-11.875
		V119.75H102l0.002-0.081c0.801,0.051,1.584,0.081,2.331,0.081h2.917c6.6,0,8.231-3.867,3.625-8.594l-31-31.812l-0.001-0.001
		L71.5,70.75l-8.546,8.417c-0.001,0.001-0.003,0.002-0.004,0.004l-9.805,9.657l-17.96,17.689v0.001L30.3,111.33
		C25.598,115.961,27.151,119.75,33.75,119.75z"/>
</g>
<g id="レイヤー_3">
</g>
<g id="レイヤー_4">
</g>
<g id="レイヤー_5">
</g>
<g id="レイヤー_6">
</g>
<g id="レイヤー_7">
</g>
</svg>
