<?xml version="1.0" encoding="utf-8"?>
<!-- Generator: Adobe Illustrator 16.0.3, SVG Export Plug-In . SVG Version: 6.00 Build 0)  -->
<!DOCTYPE svg PUBLIC "-//W3C//DTD SVG 1.1//EN" "http://www.w3.org/Graphics/SVG/1.1/DTD/svg11.dtd">
<svg version="1.1" id="Layer_1" xmlns="http://www.w3.org/2000/svg" xmlns:xlink="http://www.w3.org/1999/xlink" x="0px" y="0px"
	 width="256px" height="256px" viewBox="0 0 256 256" enable-background="new 0 0 256 256" xml:space="preserve">
<path fill-rule="evenodd" clip-rule="evenodd" fill="#191313" d="M127.996,38.717c-50.547,0-91.538,40.985-91.538,91.545
	c0,40.447,26.227,74.759,62.608,86.865c4.577,0.833,6.248-1.987,6.248-4.412c0-2.175-0.08-7.936-0.123-15.576
	c-25.465,5.532-30.837-12.27-30.837-12.27c-4.162-10.57-10.164-13.391-10.164-13.391c-8.312-5.676,0.628-5.566,0.628-5.566
	c9.187,0.648,14.021,9.441,14.021,9.441c8.167,13.981,21.425,9.943,26.642,7.605c0.832-5.916,3.196-9.955,5.812-12.239
	c-20.328-2.315-41.698-10.163-41.698-45.245c0-9.994,3.568-18.166,9.423-24.564c-0.941-2.315-4.083-11.624,0.897-24.227
	c0,0,7.686-2.461,25.174,9.384c7.301-2.031,15.132-3.046,22.917-3.082c7.777,0.036,15.603,1.051,22.918,3.082
	c17.479-11.846,25.152-9.384,25.152-9.384c4.993,12.603,1.849,21.911,0.91,24.227c5.861,6.399,9.406,14.571,9.406,24.564
	c0,35.17-21.402,42.908-41.797,45.169c3.288,2.832,6.214,8.419,6.214,16.958c0,12.239-0.11,22.105-0.11,25.113
	c0,2.448,1.646,5.29,6.295,4.401c36.347-12.129,62.547-46.418,62.547-86.854C219.542,79.702,178.557,38.717,127.996,38.717z"/>
</svg>
