<?xml version="1.0" encoding="utf-8"?>
<!-- Generator: Adobe Illustrator 16.0.3, SVG Export Plug-In . SVG Version: 6.00 Build 0)  -->
<!DOCTYPE svg PUBLIC "-//W3C//DTD SVG 1.1//EN" "http://www.w3.org/Graphics/SVG/1.1/DTD/svg11.dtd">
<svg version="1.1" xmlns="http://www.w3.org/2000/svg" xmlns:xlink="http://www.w3.org/1999/xlink" x="0px" y="0px" width="256px"
	 height="256px" viewBox="0 0 256 256" enable-background="new 0 0 256 256" xml:space="preserve">
<g id="レイヤー_2">
</g>
<g id="レイヤー_3">
	<path d="M213.27,162.75c0,0-5.602-19.787-23.877-34.849c-3.329-2.905-7.66-5.849-13.318-8.678c-1.101-0.55-2.185-1.071-3.261-1.578
		c-0.315-0.148-0.626-0.292-0.939-0.437c-0.801-0.371-1.594-0.729-2.38-1.077c-0.293-0.129-0.587-0.261-0.878-0.388
		c-1.033-0.448-2.056-0.882-3.061-1.291c-0.098-0.04-0.192-0.075-0.289-0.115c-0.915-0.37-1.816-0.722-2.706-1.062
		c-0.296-0.113-0.589-0.222-0.882-0.332c-0.734-0.273-1.458-0.537-2.174-0.791c-0.254-0.09-0.51-0.182-0.761-0.27
		c-0.933-0.324-1.852-0.634-2.752-0.925c-0.15-0.048-0.295-0.092-0.444-0.14c-0.762-0.243-1.51-0.475-2.248-0.695
		c-0.267-0.08-0.531-0.158-0.795-0.234c-0.663-0.194-1.314-0.378-1.957-0.555c-0.207-0.057-0.417-0.117-0.622-0.172
		c-0.821-0.22-1.625-0.428-2.41-0.622c-0.166-0.041-0.325-0.077-0.489-0.117c-0.629-0.152-1.247-0.297-1.852-0.433
		c-0.232-0.052-0.46-0.103-0.688-0.152c-0.582-0.127-1.15-0.247-1.708-0.359c-0.158-0.032-0.32-0.066-0.477-0.097
		c-0.696-0.137-1.371-0.263-2.026-0.379c-0.157-0.028-0.306-0.052-0.46-0.079c-0.508-0.087-1.003-0.169-1.485-0.244
		c-0.188-0.029-0.372-0.058-0.556-0.086c-0.494-0.074-0.973-0.143-1.437-0.205c-0.105-0.014-0.215-0.03-0.318-0.044
		c-0.559-0.073-1.092-0.138-1.605-0.196c-0.13-0.015-0.251-0.027-0.378-0.041c-0.389-0.042-0.765-0.08-1.125-0.114
		c-0.071-0.007-0.151-0.016-0.221-0.022c-0.006,0-0.013,0-0.019,0c-3.919-0.355-6.097-0.253-6.097-0.253v-21v-1.5v-4.5
		c0-7.7-4.944-10.095-10.986-5.322l-14.509,11.461h0l-59.004,46.61l49.639,34.953l23.414,16.487
		c6.296,4.433,11.447,1.76,11.447-5.94v-8.25c0-0.486-0.018-0.985-0.051-1.495l0.051-0.005v-20c0,0,2.331-0.312,6.168-0.55
		c0.404-0.025,0.827-0.049,1.263-0.072c0.13-0.007,0.256-0.014,0.389-0.021c0.554-0.027,1.132-0.053,1.732-0.075
		c0.128-0.005,0.263-0.009,0.394-0.013c0.5-0.017,1.015-0.032,1.543-0.044c0.176-0.004,0.351-0.008,0.53-0.012
		c0.667-0.013,1.35-0.023,2.057-0.027c0.029,0,0.06,0,0.088,0c0.672-0.003,1.366,0,2.07,0.007c0.2,0.002,0.402,0.005,0.604,0.008
		c0.627,0.009,1.266,0.023,1.915,0.042c0.14,0.004,0.277,0.006,0.418,0.011c0.772,0.024,1.561,0.057,2.36,0.097
		c0.19,0.009,0.383,0.021,0.574,0.031c0.65,0.035,1.308,0.076,1.973,0.122c0.211,0.015,0.421,0.028,0.634,0.044
		c0.833,0.063,1.674,0.132,2.524,0.213c0.118,0.011,0.237,0.025,0.354,0.037c0.742,0.073,1.491,0.155,2.245,0.245
		c0.238,0.028,0.477,0.057,0.715,0.087c0.781,0.098,1.567,0.204,2.356,0.32c0.1,0.015,0.198,0.027,0.298,0.042
		c0.875,0.131,1.755,0.278,2.637,0.436c0.229,0.041,0.46,0.084,0.69,0.127c0.711,0.132,1.423,0.272,2.135,0.422
		c0.21,0.044,0.42,0.085,0.629,0.131c0.883,0.191,1.766,0.396,2.646,0.617c0.175,0.044,0.35,0.092,0.525,0.138
		c0.726,0.187,1.449,0.384,2.171,0.592c0.243,0.07,0.487,0.14,0.729,0.212c0.881,0.263,1.759,0.537,2.629,0.833
		c22,7.5,31.852,15.91,31.852,15.91C212.283,172.133,215.362,170.161,213.27,162.75z"/>
</g>
<g id="レイヤー_4">
</g>
<g id="レイヤー_5">
</g>
<g id="レイヤー_6">
</g>
<g id="レイヤー_7">
</g>
</svg>
