<?xml version="1.0" encoding="utf-8"?>
<!-- Generator: Adobe Illustrator 16.0.3, SVG Export Plug-In . SVG Version: 6.00 Build 0)  -->
<!DOCTYPE svg PUBLIC "-//W3C//DTD SVG 1.1//EN" "http://www.w3.org/Graphics/SVG/1.1/DTD/svg11.dtd">
<svg version="1.1" id="レイヤー_1" xmlns="http://www.w3.org/2000/svg" xmlns:xlink="http://www.w3.org/1999/xlink" x="0px"
	 y="0px" width="256px" height="256px" viewBox="0 0 256 256" enable-background="new 0 0 256 256" xml:space="preserve">
<g id="レイヤー_2">
</g>
<g id="レイヤー_3">
</g>
<g id="レイヤー_4">
	<path d="M204.606,104.2l-25.122-3.65L155.2,97.021l-12.573-25.479l-9.52-19.29c-2.81-5.692-7.405-5.692-10.215,0l-8.27,16.756l0,0
		l-13.824,28.012l-27.675,4.021l-0.014,0.039c-0.363,0.033-0.724,0.069-1.071,0.12l-20.646,3c-6.281,0.913-7.702,5.284-3.156,9.714
		l15.313,14.929l0,0l20.437,19.921l-4.535,26.443c-0.001,0.007-0.003,0.014-0.004,0.02l-3.901,22.742
		c-1.073,6.255,2.646,8.957,8.264,6.005l19.596-10.304c0.707-0.371,1.423-0.813,2.14-1.313l0.162,0.103L128,180.74l28.954,15.222
		l0,0l15.235,8.01c5.618,2.953,9.337,0.25,8.264-6.005l-3.138-18.293l0,0l-5.303-30.913l17.797-17.348
		c0.002,0,0.002-0.002,0.004-0.002l2.798-2.729l2.188-2.131l0,0l12.964-12.639C212.308,109.484,210.888,105.112,204.606,104.2z"/>
</g>
<g id="レイヤー_5">
</g>
<g id="レイヤー_6">
</g>
<g id="レイヤー_7">
</g>
</svg>
