<?xml version="1.0" encoding="utf-8"?>
<!-- Generator: Adobe Illustrator 16.0.3, SVG Export Plug-In . SVG Version: 6.00 Build 0)  -->
<!DOCTYPE svg PUBLIC "-//W3C//DTD SVG 1.1//EN" "http://www.w3.org/Graphics/SVG/1.1/DTD/svg11.dtd">
<svg version="1.1" id="Layer_1" xmlns="http://www.w3.org/2000/svg" xmlns:xlink="http://www.w3.org/1999/xlink" x="0px" y="0px"
	 width="256px" height="256px" viewBox="0 0 256 256" enable-background="new 0 0 256 256" xml:space="preserve">
<path d="M217.196,72.674c-6.563,2.911-13.617,4.879-21.021,5.763c7.556-4.529,13.36-11.702,16.092-20.249
	c-7.071,4.194-14.904,7.24-23.241,8.882c-6.676-7.114-16.188-11.558-26.714-11.558c-20.213,0-36.601,16.387-36.601,36.598
	c0,2.869,0.324,5.662,0.948,8.341c-30.417-1.526-57.386-16.097-75.437-38.24c-3.15,5.405-4.955,11.692-4.955,18.4
	c0,12.697,6.461,23.9,16.282,30.463c-6-0.19-11.643-1.836-16.578-4.578c-0.002,0.153-0.003,0.306-0.003,0.46
	c0,17.732,12.616,32.525,29.359,35.887c-3.071,0.836-6.305,1.283-9.643,1.283c-2.358,0-4.651-0.229-6.886-0.656
	c4.658,14.54,18.174,25.123,34.189,25.418c-12.526,9.816-28.308,15.667-45.455,15.667c-2.954,0-5.867-0.173-8.73-0.511
	c16.197,10.384,35.435,16.443,56.104,16.443c67.32,0,104.133-55.769,104.133-104.133c0-1.587-0.036-3.165-0.106-4.734
	C206.084,86.46,212.29,80.014,217.196,72.674z"/>
</svg>
